<svg width="20" height="21" viewBox="0 0 20 21" fill="none" xmlns="http://www.w3.org/2000/svg">
<path d="M17.0392 17.7933H14.0775V13.1525C14.0775 12.0458 14.055 10.6217 12.5342 10.6217C10.99 10.6217 10.7542 11.8258 10.7542 13.0708V17.7933H7.7925V8.25H10.6375V9.55083H10.6758C11.0733 8.80083 12.04 8.00917 13.4842 8.00917C16.485 8.00917 17.04 9.98417 17.04 12.555L17.0392 17.7933ZM4.4475 6.94417C3.49417 6.94417 2.72833 6.1725 2.72833 5.22333C2.72833 4.275 3.495 3.50417 4.4475 3.50417C5.3975 3.50417 6.1675 4.275 6.1675 5.22333C6.1675 6.1725 5.39667 6.94417 4.4475 6.94417ZM5.9325 17.7933H2.9625V8.25H5.9325V17.7933ZM18.5208 0.75H1.47583C0.66 0.75 0 1.395 0 2.19083V19.3092C0 20.1058 0.66 20.75 1.47583 20.75H18.5183C19.3333 20.75 20 20.1058 20 19.3092V2.19083C20 1.395 19.3333 0.75 18.5183 0.75H18.5208Z" fill="black"/>
</svg>
